<?xml version="1.0" encoding="UTF-8" standalone="no"?>
<!-- Created with Inkscape (http://www.inkscape.org/) -->

<svg
   width="64"
   height="64"
   viewBox="0 0 64 64"
   version="1.1"
   id="svg5"
   inkscape:export-filename="/home/thomas/projects/wrench-editor/data/underlay/icons/ocean.png"
   inkscape:export-xdpi="384"
   inkscape:export-ydpi="384"
   inkscape:version="1.1.2 (0a00cf5339, 2022-02-04)"
   sodipodi:docname="ocean.svg"
   xmlns:inkscape="http://www.inkscape.org/namespaces/inkscape"
   xmlns:sodipodi="http://sodipodi.sourceforge.net/DTD/sodipodi-0.dtd"
   xmlns="http://www.w3.org/2000/svg"
   xmlns:svg="http://www.w3.org/2000/svg">
  <sodipodi:namedview
     id="namedview7"
     pagecolor="#ffffff"
     bordercolor="#666666"
     borderopacity="1.0"
     inkscape:pageshadow="2"
     inkscape:pageopacity="0.0"
     inkscape:pagecheckerboard="0"
     inkscape:document-units="px"
     showgrid="true"
     units="px"
     width="64px"
     showguides="true"
     inkscape:zoom="10.516251"
     inkscape:cx="30.429095"
     inkscape:cy="34.993459"
     inkscape:window-width="1920"
     inkscape:window-height="1056"
     inkscape:window-x="1920"
     inkscape:window-y="0"
     inkscape:window-maximized="1"
     inkscape:current-layer="layer1">
    <inkscape:grid
       type="xygrid"
       id="grid888"
       empspacing="4"
       spacingx="2"
       spacingy="2" />
  </sodipodi:namedview>
  <defs
     id="defs2" />
  <g
     inkscape:label="ocean"
     inkscape:groupmode="layer"
     id="layer1"
     style="display:inline">
    <path
       style="fill:#80b3ff;fill-rule:evenodd;stroke:none;stroke-width:1px;stroke-linecap:butt;stroke-linejoin:round;stroke-opacity:1"
       d="M 8,8 V 56 H 56 V 8 c 0,0 -4.228764,6 -8,6 -3.771236,0 -8,-6 -8,-6 0,0 -4.228764,6 -8,6 -3.771236,0 -8,-6 -8,-6 0,0 -4.228764,6 -8,6 C 12.228764,14 8,8 8,8 Z"
       id="path1893"
       sodipodi:nodetypes="ccccscscsc" />
    <path
       style="display:inline;fill:#5599ff;fill-rule:evenodd;stroke:none;stroke-width:1px;stroke-linecap:butt;stroke-linejoin:round;stroke-opacity:1"
       d="M 8,18 V 56 H 56 V 18 c 0,0 -4.228764,6 -8,6 -3.771236,0 -8,-6 -8,-6 0,0 -4.228764,6 -8,6 -3.771236,0 -8,-6 -8,-6 0,0 -4.228764,6 -8,6 -3.771236,0 -8,-6 -8,-6 z"
       id="path1893-5"
       sodipodi:nodetypes="ccccscscsc" />
    <path
       style="display:inline;fill:#2a7fff;fill-rule:evenodd;stroke:none;stroke-width:1px;stroke-linecap:butt;stroke-linejoin:round;stroke-opacity:1"
       d="M 8,29 V 56 H 56 V 29 c 0,0 -4.228764,6 -8,6 -3.771236,0 -8,-6 -8,-6 0,0 -4.228764,6 -8,6 -3.771236,0 -8,-6 -8,-6 0,0 -4.228764,6 -8,6 -3.771236,0 -8,-6 -8,-6 z"
       id="path1893-5-3"
       sodipodi:nodetypes="ccccscscsc" />
    <path
       style="display:inline;fill:#0066ff;fill-rule:evenodd;stroke:none;stroke-width:1px;stroke-linecap:butt;stroke-linejoin:round;stroke-opacity:1"
       d="M 8,40 V 56 H 56 V 40 c 0,0 -4.228764,6 -8,6 -3.771236,0 -8,-6 -8,-6 0,0 -4.228764,6 -8,6 -3.771236,0 -8,-6 -8,-6 0,0 -4.228764,6 -8,6 -3.771236,0 -8,-6 -8,-6 z"
       id="path1893-5-3-3"
       sodipodi:nodetypes="ccccscscsc" />
    <path
       style="display:inline;fill:none;fill-rule:evenodd;stroke:#000000;stroke-width:2;stroke-linecap:butt;stroke-linejoin:round;stroke-opacity:1;stroke-miterlimit:4;stroke-dasharray:none"
       d="M 8,8 V 56 H 56 V 8 c 0,0 -4.228764,6 -8,6 -3.771236,0 -8,-6 -8,-6 0,0 -4.228764,6 -8,6 -3.771236,0 -8,-6 -8,-6 0,0 -4.228764,6 -8,6 C 12.228764,14 8,8 8,8 Z"
       id="path1893-7"
       sodipodi:nodetypes="ccccscscsc" />
  </g>
</svg>
