<?xml version="1.0" encoding="UTF-8" standalone="no"?>
<!-- Created with Inkscape (http://www.inkscape.org/) -->

<svg
   width="64"
   height="64"
   viewBox="0 0 64 64"
   version="1.1"
   id="svg5"
   inkscape:export-filename="/home/thomas/projects/wrench-editor/data/editor/icons/moby.png"
   inkscape:export-xdpi="384"
   inkscape:export-ydpi="384"
   inkscape:version="1.1.2 (0a00cf5339, 2022-02-04)"
   sodipodi:docname="moby.svg"
   xmlns:inkscape="http://www.inkscape.org/namespaces/inkscape"
   xmlns:sodipodi="http://sodipodi.sourceforge.net/DTD/sodipodi-0.dtd"
   xmlns="http://www.w3.org/2000/svg"
   xmlns:svg="http://www.w3.org/2000/svg">
  <sodipodi:namedview
     id="namedview7"
     pagecolor="#ffffff"
     bordercolor="#666666"
     borderopacity="1.0"
     inkscape:pageshadow="2"
     inkscape:pageopacity="0.0"
     inkscape:pagecheckerboard="0"
     inkscape:document-units="px"
     showgrid="true"
     units="px"
     width="64px"
     showguides="false"
     inkscape:zoom="10.516251"
     inkscape:cx="24.676094"
     inkscape:cy="33.757277"
     inkscape:window-width="1920"
     inkscape:window-height="1056"
     inkscape:window-x="1920"
     inkscape:window-y="0"
     inkscape:window-maximized="1"
     inkscape:current-layer="layer1">
    <inkscape:grid
       type="xygrid"
       id="grid888"
       empspacing="4"
       spacingx="2"
       spacingy="2" />
  </sodipodi:namedview>
  <defs
     id="defs2" />
  <g
     inkscape:label="moby"
     inkscape:groupmode="layer"
     id="layer1"
     style="display:inline">
    <path
       id="path2234"
       style="fill:#5f8dd3;stroke:#000000;stroke-width:1;stroke-linejoin:round;stroke-miterlimit:4;stroke-dasharray:none"
       d="m 18,2 a 16,16 0 0 0 -1.019531,0.072266 l -1.033203,4.125 a 12,12 0 0 0 -2.0625,0.5625 L 10.910156,3.6875 A 16,16 0 0 0 9.146484,4.6914062 L 10.320312,8.798828 A 12,12 0 0 0 8.798828,10.320312 L 4.6914062,9.146484 A 16,16 0 0 0 3.6875,10.910156 l 3.0722656,2.97461 a 12,12 0 0 0 -0.5625,2.0625 l -4.125,1.033203 A 16,16 0 0 0 2,18 16,16 0 0 0 2.072266,19.019531 l 4.125,1.033203 a 12,12 0 0 0 0.5625,2.0625 L 3.6875,25.089844 a 16,16 0 0 0 1.0039062,1.763672 L 8.798828,25.679688 a 12,12 0 0 0 1.521484,1.521484 l -1.173828,4.107422 a 16,16 0 0 0 1.763672,1.003906 l 2.97461,-3.072266 a 12,12 0 0 0 2.0625,0.5625 l 1.033203,4.125 A 16,16 0 0 0 18,34 16,16 0 0 0 19.019531,33.92773 l 1.033203,-4.125 a 12,12 0 0 0 2.0625,-0.5625 l 2.97461,3.072266 a 16,16 0 0 0 1.763672,-1.003906 l -1.173828,-4.107422 a 12,12 0 0 0 1.521484,-1.521484 l 4.107422,1.173828 A 16,16 0 0 0 32.3125,25.089844 l -3.072266,-2.97461 a 12,12 0 0 0 0.5625,-2.0625 l 4.125,-1.033203 A 16,16 0 0 0 34,18 16,16 0 0 0 33.964844,16.990234 l -4.144532,-1.037109 a 12,12 0 0 0 -0.558593,-2.091797 l 3.068359,-2.96875 a 16,16 0 0 0 -1.007812,-1.75 l -4.107422,1.173828 a 12,12 0 0 0 -1.53125,-1.53125 l 1.173828,-4.1074216 a 16,16 0 0 0 -1.75,-1.0078125 l -2.96875,3.0683593 A 12,12 0 0 0 20.046875,6.1796875 L 19.009766,2.0351562 A 16,16 0 0 0 18,2 Z m 0,8 a 8,8 0 0 1 8,8 8,8 0 0 1 -8,8 8,8 0 0 1 -8,-8 8,8 0 0 1 8,-8 z" />
    <path
       id="path4906"
       style="fill:#d35f5f;stroke:#000000;stroke-width:1;stroke-linejoin:round;stroke-miterlimit:4;stroke-dasharray:none"
       d="m 34,26 a 18,18 0 0 0 -0.580078,0.04102 l -1.16211,4.08398 a 14,14 0 0 0 -1.958984,0.388672 l -2.625,-3.316406 a 18,18 0 0 0 -1.085937,0.40625 l 0.496093,4.263672 a 14,14 0 0 0 -1.644531,1.099609 l -3.722656,-2.074219 a 18,18 0 0 0 -0.824219,0.824219 l 2.074219,3.722656 a 14,14 0 0 0 -1.099609,1.644531 l -4.263672,-0.496093 a 18,18 0 0 0 -0.40625,1.085937 l 3.316406,2.625 A 14,14 0 0 0 20.125,42.257812 l -4.083984,1.16211 A 18,18 0 0 0 16,44 a 18,18 0 0 0 0.04102,0.580078 l 4.083984,1.16211 a 14,14 0 0 0 0.388672,1.958984 l -3.316406,2.625 a 18,18 0 0 0 0.40625,1.085937 l 4.263672,-0.496093 a 14,14 0 0 0 1.099609,1.644531 l -2.074219,3.722656 a 18,18 0 0 0 0.824219,0.824219 l 3.722656,-2.074219 a 14,14 0 0 0 1.644531,1.099609 l -0.496093,4.263672 a 18,18 0 0 0 1.085937,0.40625 l 2.625,-3.316406 a 14,14 0 0 0 1.95898,0.388672 l 1.16211,4.083984 A 18,18 0 0 0 34,62 18,18 0 0 0 34.580078,61.958984 L 35.742188,57.875 a 14,14 0 0 0 1.958984,-0.388672 l 2.625,3.316406 a 18,18 0 0 0 1.085937,-0.40625 l -0.496093,-4.263672 a 14,14 0 0 0 1.644531,-1.099609 l 3.722656,2.074219 a 18,18 0 0 0 0.824219,-0.824219 l -2.074219,-3.722656 a 14,14 0 0 0 1.099609,-1.644531 l 4.263672,0.496093 a 18,18 0 0 0 0.40625,-1.085937 l -3.316406,-2.625 A 14,14 0 0 0 47.875,45.742188 l 4.083984,-1.16211 A 18,18 0 0 0 52,44 18,18 0 0 0 51.986328,43.425781 l -4.099609,-1.166015 a 14,14 0 0 0 -0.390625,-1.96875 l 3.339844,-2.644532 a 18,18 0 0 0 -0.439454,-1.058593 l -4.230468,0.492187 A 14,14 0 0 0 45.048828,35.410156 L 47.123047,31.6875 A 18,18 0 0 0 46.3125,30.876953 l -3.722656,2.074219 a 14,14 0 0 0 -1.669922,-1.117188 l 0.492187,-4.230468 a 18,18 0 0 0 -1.058593,-0.439454 l -2.644532,3.339844 a 14,14 0 0 0 -1.96875,-0.390625 L 34.574219,26.013672 A 18,18 0 0 0 34,26 Z m 0,14 a 4,4 0 0 1 4,4 4,4 0 0 1 -4,4 4,4 0 0 1 -4,-4 4,4 0 0 1 4,-4 z" />
    <path
       id="path5711"
       style="fill:#8dd35f;stroke:#000000;stroke-width:1;stroke-linejoin:round;stroke-miterlimit:4;stroke-dasharray:none"
       d="M 48,4 A 14,14 0 0 0 47.222656,4.054687 L 46.705078,8.0917969 A 10,10 0 0 0 45.408203,8.3554688 L 43.380859,4.8183594 a 14,14 0 0 0 -1.439453,0.5800781 l 1.074219,3.9589844 A 10,10 0 0 0 41.925781,10.087891 L 38.673828,7.578125 a 14,14 0 0 0 -1.095703,1.0957031 l 2.509766,3.2519529 a 10,10 0 0 0 -0.730469,1.089844 l -3.958984,-1.074219 a 14,14 0 0 0 -0.580079,1.439453 l 3.53711,2.027344 a 10,10 0 0 0 -0.263672,1.296875 l -4.037109,0.517578 A 14,14 0 0 0 34,18 a 14,14 0 0 0 0.05469,0.777344 l 4.037109,0.517578 a 10,10 0 0 0 0.263672,1.296875 l -3.53711,2.027344 a 14,14 0 0 0 0.580079,1.439453 l 3.958984,-1.074219 a 10,10 0 0 0 0.730469,1.089844 l -2.509766,3.251953 a 14,14 0 0 0 1.095703,1.095703 l 3.251953,-2.509766 a 10,10 0 0 0 1.089844,0.730469 l -1.074219,3.958984 a 14,14 0 0 0 1.439453,0.580079 l 2.027344,-3.53711 a 10,10 0 0 0 1.296875,0.263672 l 0.517578,4.037109 A 14,14 0 0 0 48,32 14,14 0 0 0 48.777344,31.94531 l 0.517578,-4.037109 a 10,10 0 0 0 1.296875,-0.263672 l 2.027344,3.53711 a 14,14 0 0 0 1.439453,-0.580079 l -1.074219,-3.958984 a 10,10 0 0 0 1.089844,-0.730469 l 3.251953,2.509766 a 14,14 0 0 0 1.095703,-1.095703 l -2.509766,-3.251953 a 10,10 0 0 0 0.730469,-1.089844 l 3.958984,1.074219 a 14,14 0 0 0 0.580079,-1.439453 l -3.53711,-2.027344 a 10,10 0 0 0 0.263672,-1.296875 l 4.037109,-0.517578 A 14,14 0 0 0 62,18 14,14 0 0 0 61.976562,17.226562 l -4.0625,-0.521484 a 10,10 0 0 0 -0.259765,-1.302734 l 3.554687,-2.03711 a 14,14 0 0 0 -0.591796,-1.429687 l -3.955079,1.074219 A 10,10 0 0 0 55.925781,11.90625 l 2.503907,-3.2421875 a 14,14 0 0 0 -1.09375,-1.09375 L 54.09375,10.074219 A 10,10 0 0 0 52.990234,9.3378906 L 54.064453,5.3828125 A 14,14 0 0 0 52.634766,4.7910156 l -2.03711,3.5546875 A 10,10 0 0 0 49.294922,8.0859375 l -0.521484,-4.0625 A 14,14 0 0 0 48,4 Z m 0,12 a 2,2 0 0 1 2,2 2,2 0 0 1 -2,2 2,2 0 0 1 -2,-2 2,2 0 0 1 2,-2 z" />
  </g>
</svg>
