<?xml version="1.0" encoding="UTF-8" standalone="no"?>
<!-- Created with Inkscape (http://www.inkscape.org/) -->

<svg
   width="64"
   height="64"
   viewBox="0 0 64 64"
   version="1.1"
   id="svg5"
   inkscape:export-filename="/home/thomas/projects/wrench-editor/data/editor/icons/moby_group.png"
   inkscape:export-xdpi="384"
   inkscape:export-ydpi="384"
   inkscape:version="1.1.2 (0a00cf5339, 2022-02-04)"
   sodipodi:docname="moby_group.svg"
   xmlns:inkscape="http://www.inkscape.org/namespaces/inkscape"
   xmlns:sodipodi="http://sodipodi.sourceforge.net/DTD/sodipodi-0.dtd"
   xmlns="http://www.w3.org/2000/svg"
   xmlns:svg="http://www.w3.org/2000/svg">
  <sodipodi:namedview
     id="namedview7"
     pagecolor="#ffffff"
     bordercolor="#666666"
     borderopacity="1.0"
     inkscape:pageshadow="2"
     inkscape:pageopacity="0.0"
     inkscape:pagecheckerboard="0"
     inkscape:document-units="px"
     showgrid="true"
     units="px"
     width="64px"
     showguides="true"
     inkscape:zoom="10.516251"
     inkscape:cx="24.676094"
     inkscape:cy="33.757277"
     inkscape:window-width="1920"
     inkscape:window-height="1056"
     inkscape:window-x="1920"
     inkscape:window-y="0"
     inkscape:window-maximized="1"
     inkscape:current-layer="layer1">
    <inkscape:grid
       type="xygrid"
       id="grid888"
       empspacing="4"
       spacingx="2"
       spacingy="2" />
  </sodipodi:namedview>
  <defs
     id="defs2" />
  <g
     inkscape:label="moby_group"
     inkscape:groupmode="layer"
     id="layer1"
     style="display:inline">
    <path
       id="path5711"
       style="fill:#8dd35f;stroke:#000000;stroke-width:1;stroke-linejoin:round;stroke-miterlimit:4;stroke-dasharray:none"
       d="m 51.45328,7.2531223 a 14,14 0 0 0 -0.772109,-0.105366 l -1.331883,3.8460687 a 10,10 0 0 0 -1.323389,-0.007 L 46.76439,7.1099954 A 14,14 0 0 0 45.236756,7.383584 l 0.242274,4.094975 a 10,10 0 0 0 -1.216149,0.492267 L 41.592619,8.8493165 a 14,14 0 0 0 -1.296542,0.8485921 l 1.792035,3.6963144 a 10,10 0 0 0 -0.937822,0.917516 l -3.655808,-1.8608 a 14,14 0 0 0 -0.862071,1.290484 l 3.048011,2.707563 a 10,10 0 0 0 -0.523201,1.215594 l -4.057665,-0.318583 a 14,14 0 0 0 -0.212432,0.749752 14,14 0 0 0 -0.10536,0.77211 l 3.846067,1.331882 a 10,10 0 0 0 -0.007,1.32339 l -3.876836,1.26151 a 14,14 0 0 0 0.273589,1.527633 L 39.112556,24.07 a 10,10 0 0 0 0.492269,1.216149 l -3.121509,2.670262 a 14,14 0 0 0 0.848592,1.296542 l 3.696314,-1.792035 a 10,10 0 0 0 0.917515,0.937821 l -1.860799,3.655808 a 14,14 0 0 0 1.290483,0.862071 l 2.707564,-3.04801 a 10,10 0 0 0 1.215594,0.5232 l -0.318583,4.057665 a 14,14 0 0 0 0.74975,0.212432 14,14 0 0 0 0.77211,0.10536 l 1.331882,-3.846067 a 10,10 0 0 0 1.32339,0.007 l 1.261509,3.876836 a 14,14 0 0 0 1.527634,-0.273589 l -0.24227,-4.09498 a 10,10 0 0 0 1.216148,-0.492267 l 2.670263,3.121509 a 14,14 0 0 0 1.296541,-0.848592 l -1.792034,-3.696314 a 10,10 0 0 0 0.937821,-0.917515 l 3.655807,1.860799 a 14,14 0 0 0 0.862072,-1.290484 l -3.048011,-2.707563 a 10,10 0 0 0 0.523201,-1.215594 l 4.057665,0.318582 a 14,14 0 0 0 0.212431,-0.749749 14,14 0 0 0 0.135158,-0.761898 L 58.56094,21.716484 a 10,10 0 0 0 0.01201,-1.328327 l 3.89604,-1.267477 a 14,14 0 0 0 -0.287056,-1.520469 l -4.09115,0.243072 a 10,10 0 0 0 -0.495209,-1.230727 l 3.113778,-2.661901 a 14,14 0 0 0 -0.84708,-1.294231 l -3.685557,1.788295 a 10,10 0 0 0 -0.9297,-0.946352 L 57.107018,9.8463816 A 14,14 0 0 0 55.828489,8.9748362 l -2.720716,3.0632218 a 10,10 0 0 0 -1.222128,-0.520574 l 0.31995,-4.0833193 A 14,14 0 0 0 51.45328,7.2531223 Z M 49.000339,18.999743 a 2,2 0 0 1 1.548946,2.366594 2,2 0 0 1 -2.366594,1.548946 2,2 0 0 1 -1.548946,-2.366594 2,2 0 0 1 2.366594,-1.548946 z" />
    <path
       id="path1278"
       style="fill:#d35f5f;fill-opacity:1;stroke:#000000;stroke-width:1;stroke-linejoin:round;stroke-miterlimit:4;stroke-dasharray:none;stroke-opacity:1"
       d="m 32.943564,28.028469 a 16,16 0 0 0 -1.950104,0.02371 l -0.317053,2.021931 a 14,14 0 0 0 -1.171045,0.183211 L 28.64037,28.372958 a 16,16 0 0 0 -3.668729,1.295671 l 0.479717,1.980957 a 14,14 0 0 0 -1.012303,0.609331 l -1.506239,-1.395941 a 16,16 0 0 0 -2.911515,2.586713 l 1.208892,1.660116 a 14,14 0 0 0 -0.72428,0.933522 l -1.910697,-0.709614 a 16,16 0 0 0 -1.718606,3.490664 l 1.76942,1.080836 a 14,14 0 0 0 -0.319815,1.141329 l -2.045197,0.07679 a 16,16 0 0 0 -0.253148,1.933749 16,16 0 0 0 0.02371,1.950104 l 2.021931,0.317053 a 14,14 0 0 0 0.183212,1.171046 l -1.884367,0.864991 a 16,16 0 0 0 1.295671,3.66873 l 1.980957,-0.479718 a 14,14 0 0 0 0.609331,1.012303 l -1.395941,1.506239 a 16,16 0 0 0 2.586713,2.911515 l 1.660117,-1.208892 a 14,14 0 0 0 0.933522,0.72428 l -0.709614,1.910697 a 16,16 0 0 0 3.490663,1.718606 l 1.080838,-1.769421 a 14,14 0 0 0 1.141329,0.319815 l 0.0768,2.045197 a 16,16 0 0 0 1.933749,0.253148 16,16 0 0 0 1.950104,-0.02371 l 0.317053,-2.021931 a 14,14 0 0 0 1.171046,-0.183212 l 0.864992,1.884367 a 16,16 0 0 0 3.668729,-1.295671 l -0.479718,-1.980957 a 14,14 0 0 0 1.012303,-0.609331 l 1.506239,1.395941 a 16,16 0 0 0 2.911515,-2.586713 L 42.76986,52.891442 a 14,14 0 0 0 0.72428,-0.933522 l 1.910697,0.709614 a 16,16 0 0 0 1.718606,-3.490663 L 45.35402,48.096033 a 14,14 0 0 0 0.319815,-1.141329 l 2.045197,-0.07679 a 16,16 0 0 0 0.253148,-1.933749 16,16 0 0 0 -0.0081,-1.949183 l -2.02973,-0.317514 a 14,14 0 0 0 -0.162801,-1.18549 l 1.86418,-0.854446 a 16,16 0 0 0 -1.26998,-3.673081 l -1.996783,0.482697 a 14,14 0 0 0 -0.604277,-1.031569 l 1.397892,-1.506123 A 16,16 0 0 0 42.577686,32 l -1.66023,1.210843 a 14,14 0 0 0 -0.95325,-0.721533 l 0.714435,-1.926064 A 16,16 0 0 0 37.18063,28.869642 l -1.067985,1.750613 a 14,14 0 0 0 -1.158079,-0.30124 l -0.07633,-2.052996 a 16,16 0 0 0 -1.934671,-0.23755 z M 32.23591,40.007585 a 4,4 0 0 1 3.757154,4.228924 4,4 0 0 1 -4.228924,3.757153 4,4 0 0 1 -3.757153,-4.228923 4,4 0 0 1 4.228923,-3.757154 z" />
    <path
       id="path2234"
       style="fill:#5f8dd3;stroke:#000000;stroke-width:1;stroke-linejoin:round;stroke-miterlimit:4;stroke-dasharray:none"
       d="m 19.008604,2.0318217 a 16,16 0 0 0 -1.022059,0.00785 L 16.695367,6.0913402 A 12,12 0 0 0 14.60151,6.5227061 L 11.826485,3.2690376 a 16,16 0 0 0 -1.823449,0.8907317 l 0.912571,4.1732482 A 12,12 0 0 0 9.3012382,9.7555645 L 5.2759809,8.3251484 A 16,16 0 0 0 4.1628934,10.022029 l 2.8786426,3.162362 a 12,12 0 0 0 -0.6913967,2.02294 l -4.1819268,0.771117 a 16,16 0 0 0 -0.1363908,1.012948 16,16 0 0 0 0.00785,1.022059 l 4.0516652,1.291178 a 12,12 0 0 0 0.4313659,2.093857 l -3.2536685,2.775025 a 16,16 0 0 0 0.8907317,1.823449 l 4.1732482,-0.912571 a 12,12 0 0 0 1.422547,1.614369 l -1.4304161,4.025257 a 16,16 0 0 0 1.6968809,1.113088 l 3.162362,-2.878643 a 12,12 0 0 0 2.02294,0.691396 l 0.771117,4.181927 a 16,16 0 0 0 1.012948,0.136391 16,16 0 0 0 1.022059,-0.0079 l 1.291179,-4.051665 A 12,12 0 0 0 21.39849,29.47729 l 2.775026,3.253668 a 16,16 0 0 0 1.823448,-0.890731 l -0.912571,-4.173248 a 12,12 0 0 0 1.614369,-1.422547 l 4.025258,1.430416 a 16,16 0 0 0 1.113087,-1.696877 l -2.878643,-3.162362 a 12,12 0 0 0 0.691396,-2.02294 l 4.181927,-0.771117 a 16,16 0 0 0 0.136391,-1.012948 16,16 0 0 0 0.02857,-1.009974 l -4.070912,-1.296308 a 12,12 0 0 0 -0.42562,-2.122849 l 3.2494,-2.769423 A 16,16 0 0 0 31.854122,10 l -4.173248,0.912571 A 12,12 0 0 0 26.249196,9.2878396 l 1.430416,-4.025257 A 16,16 0 0 0 25.996622,4.1464584 L 22.840354,7.0215718 A 12,12 0 0 0 20.78793,6.3322268 L 20.014146,2.1305614 a 16,16 0 0 0 -1.005542,-0.09874 z m -0.504302,7.9840893 a 8,8 0 0 1 7.479787,8.488391 8,8 0 0 1 -8.488391,7.479787 8,8 0 0 1 -7.479787,-8.488391 8,8 0 0 1 8.488391,-7.479787 z" />
    <path
       style="fill:#ffffff;fill-opacity:1;fill-rule:evenodd;stroke:#000000;stroke-width:1px;stroke-linecap:butt;stroke-linejoin:miter;stroke-opacity:1"
       d="m 50,34 h 8 v 22 h -8 v -4 h 4 V 38 h -4 z"
       id="path1794"
       sodipodi:nodetypes="ccccccccc" />
    <path
       style="fill:#ffffff;fill-opacity:1;fill-rule:evenodd;stroke:#000000;stroke-width:1px;stroke-linecap:butt;stroke-linejoin:miter;stroke-opacity:1"
       d="m 38,34 h 8 v 4 h -4 v 14 h 4 v 4 h -8 z"
       id="path1796"
       sodipodi:nodetypes="ccccccccc" />
  </g>
</svg>
