<?xml version="1.0" encoding="UTF-8" standalone="no"?>
<!-- Created with Inkscape (http://www.inkscape.org/) -->

<svg
   width="64"
   height="64"
   viewBox="0 0 64 64"
   version="1.1"
   id="svg5"
   inkscape:export-filename="/home/thomas/projects/wrench-editor/data/editor/icons/tie_group.png"
   inkscape:export-xdpi="384"
   inkscape:export-ydpi="384"
   inkscape:version="1.1.2 (0a00cf5339, 2022-02-04)"
   sodipodi:docname="tie_group.svg"
   xmlns:inkscape="http://www.inkscape.org/namespaces/inkscape"
   xmlns:sodipodi="http://sodipodi.sourceforge.net/DTD/sodipodi-0.dtd"
   xmlns:xlink="http://www.w3.org/1999/xlink"
   xmlns="http://www.w3.org/2000/svg"
   xmlns:svg="http://www.w3.org/2000/svg">
  <sodipodi:namedview
     id="namedview7"
     pagecolor="#ffffff"
     bordercolor="#666666"
     borderopacity="1.0"
     inkscape:pageshadow="2"
     inkscape:pageopacity="0.0"
     inkscape:pagecheckerboard="0"
     inkscape:document-units="px"
     showgrid="true"
     units="px"
     width="64px"
     showguides="false"
     inkscape:zoom="15.958707"
     inkscape:cx="24.626055"
     inkscape:cy="33.774666"
     inkscape:window-width="1920"
     inkscape:window-height="1056"
     inkscape:window-x="1920"
     inkscape:window-y="0"
     inkscape:window-maximized="1"
     inkscape:current-layer="layer1">
    <inkscape:grid
       type="xygrid"
       id="grid888"
       empspacing="4"
       spacingx="2"
       spacingy="2" />
  </sodipodi:namedview>
  <defs
     id="defs2">
    <linearGradient
       inkscape:collect="always"
       id="linearGradient834">
      <stop
         style="stop-color:#ff5555;stop-opacity:1;"
         offset="0"
         id="stop830" />
      <stop
         style="stop-color:#ff8080;stop-opacity:1"
         offset="1"
         id="stop832" />
    </linearGradient>
    <linearGradient
       inkscape:collect="always"
       xlink:href="#linearGradient834"
       id="linearGradient836"
       x1="32"
       y1="44"
       x2="32"
       y2="8"
       gradientUnits="userSpaceOnUse" />
  </defs>
  <g
     inkscape:label="tie_group"
     inkscape:groupmode="layer"
     id="layer1"
     style="display:inline">
    <path
       style="fill:url(#linearGradient836);fill-rule:evenodd;stroke:none;stroke-width:1px;stroke-linecap:butt;stroke-linejoin:round;stroke-opacity:1;fill-opacity:1"
       d="M 56,20 V 44 C 50.014159,41.774506 42,42 36,36 H 28 C 22,42 14.124,41.754684 8,44 V 20 c 6.316168,2.277148 14,2 20,8 h 8 c 6,-6 14.171603,-5.793046 20,-8 z"
       id="path962"
       sodipodi:nodetypes="ccccccccc" />
    <path
       style="fill:none;fill-rule:evenodd;stroke:#dc4b4b;stroke-width:1px;stroke-linecap:butt;stroke-linejoin:round;stroke-opacity:1"
       d="m 28,28 v 8"
       id="path4038" />
    <path
       style="fill:none;fill-rule:evenodd;stroke:#dc4b4b;stroke-width:1px;stroke-linecap:butt;stroke-linejoin:round;stroke-opacity:1"
       d="m 36,28 v 8"
       id="path4040" />
    <path
       style="fill:none;fill-rule:evenodd;stroke:#dc4b4b;stroke-width:1px;stroke-linecap:round;stroke-linejoin:round;stroke-opacity:1"
       d="m 28,31 c -2,-4.88e-4 -6,-2 -8,-2"
       id="path4809"
       sodipodi:nodetypes="cc" />
    <path
       style="fill:none;fill-rule:evenodd;stroke:#dc4b4b;stroke-width:1px;stroke-linecap:round;stroke-linejoin:round;stroke-opacity:1"
       d="m 36,31 c 2,-4.88e-4 6,-2 8,-2"
       id="path4811"
       sodipodi:nodetypes="cc" />
    <path
       style="display:inline;fill:none;fill-rule:evenodd;stroke:#dc4b4b;stroke-width:1px;stroke-linecap:round;stroke-linejoin:round;stroke-opacity:1"
       d="m 28,33 c -2,-4.88e-4 -6,2 -8,2"
       id="path4809-7"
       sodipodi:nodetypes="cc" />
    <path
       style="display:inline;fill:none;fill-rule:evenodd;stroke:#dc4b4b;stroke-width:1px;stroke-linecap:round;stroke-linejoin:round;stroke-opacity:1"
       d="m 36,33 c 2,-4.88e-4 6,2 8,2"
       id="path4811-5"
       sodipodi:nodetypes="cc" />
    <path
       style="display:inline;fill:none;fill-rule:evenodd;stroke:#000000;stroke-width:1;stroke-linecap:butt;stroke-linejoin:round;stroke-opacity:1;stroke-miterlimit:4;stroke-dasharray:none"
       d="M 56,20 V 44 C 50.014159,41.774506 42,42 36,36 H 28 C 22,42 14.124,41.754684 8,44 V 20 c 6.316168,2.277148 14,2 20,8 h 8 c 6,-6 14.171603,-5.793046 20,-8 z"
       id="path962-3"
       sodipodi:nodetypes="ccccccccc" />
    <path
       style="display:inline;fill:#ffffff;fill-opacity:1;fill-rule:evenodd;stroke:#000000;stroke-width:1px;stroke-linecap:butt;stroke-linejoin:miter;stroke-opacity:1"
       d="m 50,34 h 8 v 22 h -8 v -4 h 4 V 38 h -4 z"
       id="path1794"
       sodipodi:nodetypes="ccccccccc" />
    <path
       style="display:inline;fill:#ffffff;fill-opacity:1;fill-rule:evenodd;stroke:#000000;stroke-width:1px;stroke-linecap:butt;stroke-linejoin:miter;stroke-opacity:1"
       d="m 38,34 h 8 v 4 h -4 v 14 h 4 v 4 h -8 z"
       id="path1796"
       sodipodi:nodetypes="ccccccccc" />
  </g>
</svg>
